<?xml version="1.0" encoding="iso-8859-1"?>
<!-- Uploaded to: SVG Repo, www.svgrepo.com, Generator: SVG Repo Mixer Tools -->
<!DOCTYPE svg PUBLIC "-//W3C//DTD SVG 1.1//EN" "http://www.w3.org/Graphics/SVG/1.1/DTD/svg11.dtd">
<svg fill="#474747" version="1.1" id="Capa_1" xmlns="http://www.w3.org/2000/svg" xmlns:xlink="http://www.w3.org/1999/xlink" 
	 width="200px" height="200px" viewBox="0 0 211.083 211.083"
	 xml:space="preserve">
<g>
	<g>
		<path d="M2.401,98.879c7.475-1.168,12.308,2.834,18.636,10.365c-5.437-1.735-10.989-0.934-16.173,2.637
			c-0.994,0.675-1.237,2.024-0.562,3.006c0.675,0.996,2.036,1.233,3.019,0.554c6.945-4.794,14.618-3.339,21.563,4.107
			c0.103,0.105,0.216,0.147,0.335,0.228c0.203,0.295,0.414,0.559,0.625,0.849c0.309,0.427,0.617,0.864,0.941,1.286
			c-1.189-0.258-2.431-0.342-3.728-0.264c-0.095-0.447-0.105-0.912-0.322-1.35c-0.962-1.914-2.911-3.19-4.354-3.465
			c-16.266-3.037-17.492,23.235-17.528,24.29c-0.042,0.791,0.361,1.534,1.041,1.94c0.335,0.2,0.736,0.301,1.103,0.301
			c0.379,0,0.777-0.105,1.102-0.301c4.482-2.663,7.132-3.265,9.743-3.328c6.721-0.194,12.888-0.912,14.288-7.535
			c0.44-2.104,0.28-3.939-0.438-5.516c3.222,1.36,6.272,4.329,9.703,7.994c0.248,0.269,0.562,0.438,0.881,0.549
			c5.004,4.229,11.079,7.188,19.076,7.188c0.071,0,0.129,0,0.217,0c4.632-0.037,8.928-1.414,12.638-3.797
			c0.562,0.881,1.191,1.74,1.938,2.531c3.937,4.15,9.276,6.507,14.985,6.645c0.179,0.005,0.351,0.005,0.541,0.005
			c5.065,0,9.811-1.83,13.666-5.062c3.857,3.232,8.633,5.062,13.689,5.062c0.18,0,0.343,0,0.527-0.005
			c5.738-0.138,11.064-2.5,14.987-6.645c0.786-0.823,1.456-1.725,2.046-2.652c3.729,2.473,8.121,3.886,12.847,3.928
			c0.084,0,0.147,0,0.222,0c7.989,0,14.063-2.953,19.068-7.188c0.327-0.11,0.638-0.279,0.886-0.548
			c3.428-3.665,6.471-6.629,9.692-7.989c-0.722,1.571-0.875,3.406-0.432,5.516c1.424,6.623,7.567,7.336,14.285,7.536
			c2.59,0.073,5.247,0.664,9.735,3.327c0.337,0.195,0.732,0.301,1.107,0.301c0.379,0,0.765-0.105,1.107-0.301
			c0.675-0.406,1.075-1.154,1.033-1.94c-0.031-1.05-1.239-27.285-17.529-24.29c-1.434,0.27-3.385,1.54-4.345,3.455
			c-0.211,0.438-0.232,0.901-0.332,1.354c-1.298-0.089-2.553,0.006-3.718,0.27c0.316-0.433,0.627-0.865,0.938-1.292
			c0.2-0.296,0.422-0.56,0.622-0.844c0.11-0.079,0.232-0.127,0.332-0.227c6.95-7.457,14.597-8.907,21.548-4.113
			c0.98,0.675,2.33,0.442,3.016-0.555c0.676-0.985,0.433-2.33-0.559-3.011c-5.179-3.575-10.716-4.382-16.158-2.647
			c6.328-7.515,11.159-11.498,18.637-10.354c1.118,0.187,2.278-0.617,2.468-1.798c0.18-1.179-0.622-2.286-1.804-2.468
			c-11.707-1.843-18.572,6.668-26.44,16.54c-1.593,1.993-3.133,4.14-4.683,6.297c0.158-5.105-1.757-9.783-5.774-13.675
			c0.949-2.178,0.896-4.767-0.412-6.971c-2.088-3.494-7.014-4.762-10.483-2.676c-1.771,1.042-3.026,2.705-3.518,4.686
			c-0.521,1.988-0.211,4.055,0.828,5.832c1.371,2.311,3.897,3.744,6.587,3.744c1.371,0,2.721-0.374,3.913-1.075
			c0.115-0.063,0.2-0.153,0.316-0.222c5.368,5.379,5.689,12.535,0.854,20.387c-0.4,0.454-0.785,0.934-1.202,1.366
			c-0.126,0.132-0.274,0.274-0.411,0.406c-4.979,5.179-10.821,8.838-19.164,8.838c-0.062,0-0.115,0-0.189,0
			c-4.082-0.026-7.847-1.261-11-3.491c0.738-2.188,1.044-4.492,0.886-6.771c0.738-1.14,1.461-2.362,2.162-3.655
			c3.343-6.101,4.925-11.934,5.188-17.275c0.043-0.185,0.105-0.358,0.105-0.554c-0.031-0.4-0.031-0.696-0.042-1.07
			c0-0.327-0.021-0.654-0.031-0.976c-0.2-6.979-0.011-8.324,1.719-12.662c0.797,0,1.593-0.161,2.32-0.469
			c1.472-0.614,2.626-1.772,3.238-3.256c0.591-1.49,0.58-3.12-0.042-4.583c-1.234-2.977-4.831-4.478-7.848-3.209
			c-1.46,0.622-2.61,1.782-3.227,3.262c-0.602,1.479-0.58,3.116,0.042,4.59c0.337,0.815,0.896,1.479,1.519,2.051
			c-0.321,0.805-0.602,1.551-0.833,2.22c-0.575-1.113-1.266-2.138-2.004-3.111c0.11-2.315,0.179-11.728-6.413-16.406
			c-2.288-1.619-5.226-1.65-7.814-1.68c-1.635-0.016-3.671-0.037-4.209-0.609c-0.284-0.285-0.306-0.545,0.079-1.814
			c0.296-1.036,0.907-3.204-0.965-4.52c-3.032-2.148-8.253,0.053-11.726,4.941c-3.56,5.025-3.899,10.481-0.788,12.688
			c1.484,1.055,3.386,0.256,4.577-0.582c0.507-0.346,1.008-0.757,1.709-0.67c0.717,0.329,1.413,2.241,1.967,3.775
			c0.875,2.429,1.883,5.189,4.161,6.809c2.33,1.647,5.168,2.479,8.453,2.479c3.132,0,5.99-0.765,7.783-1.371
			c4.841,6.794,5.965,17.589-0.564,29.655c-0.69-1.546-1.688-2.964-2.837-4.288c4.567-2.694,3.032-7.763,2.004-11.121
			c-0.453-1.466-0.611-3.091,0.053-6.199c0.158-0.778-0.11-1.577-0.717-2.091c-0.58-0.517-1.439-0.67-2.162-0.377
			c-1.013,0.382-9.978,3.947-12.161,9.975c-0.574,1.571-0.606,3.19-0.179,4.783c-2.531,0.363-4.957,1.397-7.035,3.101
			c-0.759-0.349-1.558-0.58-2.444-0.58c-3.132,0.058-5.653,2.642-5.61,5.779c0.065,3.144,2.56,5.601,5.703,5.601
			c0.011,0,0.063,0,0.076,0c3.13-0.053,5.65-2.637,5.598-5.764c0-0.67-0.169-1.281-0.4-1.877c2.336-1.799,5.241-2.479,8.005-1.988
			c-0.042,5.742,1.593,11.153,4.683,15.583c-4.361,4.599-8.501,6.618-11.665,7.467c-4.229,1.129-8.574,0.612-11.907-1.419
			c-0.458-0.279-0.983-0.295-1.484-0.194c-0.541-0.111-1.076-0.09-1.545,0.194c-3.333,2.031-7.668,2.542-11.892,1.424
			c-3.13-0.838-7.209-2.826-11.491-7.293c3.183-4.467,4.844-9.961,4.812-15.799c2.679-0.396,5.466,0.301,7.694,2.03
			c-0.222,0.585-0.388,1.208-0.398,1.872c-0.05,3.133,2.468,5.722,5.6,5.77c0.005,0,0.074,0,0.084,0
			c3.096,0,5.661-2.521,5.703-5.611c0.042-3.127-2.473-5.717-5.703-5.77c-0.847,0-1.65,0.222-2.365,0.564
			c-2.078-1.688-4.493-2.721-7.024-3.085c0.443-1.582,0.406-3.201-0.168-4.777c-2.186-6.028-11.146-9.593-12.171-9.975
			c-0.738-0.293-1.577-0.14-2.165,0.377c-0.593,0.514-0.87,1.318-0.717,2.091c0.665,3.108,0.506,4.728,0.053,6.204
			c-1.284,4.267-2.196,8.627,2.004,11.116c-1.155,1.329-2.138,2.742-2.824,4.287c-6.529-12.07-5.411-22.86-0.578-29.655
			c1.793,0.606,4.665,1.374,7.792,1.374c3.288,0,6.133-0.833,8.446-2.479c2.294-1.621,3.277-4.382,4.163-6.815
			c0.562-1.535,1.242-3.441,2.268-3.845c0.346,0,0.912,0.393,1.405,0.744c1.213,0.838,3.104,1.626,4.588,0.583
			c3.111-2.207,2.787-7.667-0.788-12.693c-3.459-4.883-8.688-7.084-11.718-4.941c-1.877,1.324-1.252,3.489-0.965,4.525
			c0.355,1.273,0.335,1.534,0.068,1.813c-0.551,0.572-2.581,0.594-4.206,0.612c-2.586,0.026-5.519,0.058-7.807,1.677
			c-6.616,4.683-6.523,14.122-6.415,16.411c-0.736,0.978-1.421,2.004-2.01,3.116c-0.237-0.675-0.519-1.421-0.828-2.23
			c0.617-0.572,1.184-1.236,1.513-2.052c0.625-1.474,0.636-3.105,0.042-4.59c-0.593-1.485-1.738-2.64-3.225-3.262
			c-3.011-1.263-6.624,0.237-7.85,3.185c-0.623,1.482-0.633,3.111-0.034,4.602c0.601,1.479,1.75,2.642,3.208,3.246
			c0.762,0.319,1.529,0.48,2.35,0.48c1.732,4.358,1.912,5.692,1.706,12.746c-0.005,0.284-0.026,0.569-0.026,0.859
			c-0.011,0.38-0.016,0.69-0.034,1.107c-0.005,0.2,0.05,0.385,0.103,0.569c0.277,5.337,1.854,11.169,5.197,17.26
			c0.712,1.298,1.434,2.516,2.148,3.66c-0.152,2.336,0.156,4.688,0.929,6.924c-3.085,2.114-6.766,3.296-10.724,3.327
			c-0.077,0-0.127,0-0.19,0c-8.343,0-14.18-3.654-19.159-8.832c-0.137-0.133-0.292-0.28-0.417-0.417
			c-0.406-0.433-0.789-0.907-1.189-1.36c-4.838-7.857-4.514-15.02,0.844-20.388c0.113,0.069,0.195,0.158,0.319,0.228
			c1.187,0.701,2.537,1.075,3.908,1.075c2.689,0,5.213-1.435,6.584-3.744c1.047-1.771,1.35-3.839,0.836-5.827
			c-0.506-1.98-1.754-3.644-3.51-4.68c-3.488-2.097-8.424-0.82-10.502,2.684c-1.297,2.196-1.35,4.78-0.401,6.964
			c-4.016,3.887-5.946,8.569-5.772,13.679c-1.545-2.156-3.09-4.308-4.688-6.301c-7.868-9.878-14.737-18.36-26.438-16.546
			c-1.182,0.185-1.985,1.289-1.804,2.468C0.123,98.257,1.317,99.061,2.401,98.879z M27.906,131.308
			c-0.562,2.663-2.16,3.887-10.173,4.119c-2.766,0.068-5.3,0.669-8.16,1.978c0.835-5.906,3.338-16.469,10.433-16.469
			c0.506,0,1.037,0.053,1.577,0.147c0.237,0.063,1.005,0.527,1.306,1.196c0.05,0.105-0.032,0.211-0.016,0.312
			c-2.558,0.944-5.287,2.61-8.213,5.321c-0.881,0.812-0.928,2.178-0.113,3.053c0.81,0.876,2.165,0.918,3.04,0.116
			c2.587-2.394,4.894-3.87,7.027-4.614c0.604,0.084,2.138,0.48,2.887,1.545C28.072,128.776,28.204,129.89,27.906,131.308z
			 M183.499,128.012c0.775-1.064,2.305-1.466,2.879-1.545c2.142,0.744,4.44,2.215,7.046,4.614c0.864,0.802,2.235,0.76,3.037-0.116
			c0.807-0.881,0.77-2.246-0.11-3.048c-2.933-2.716-5.664-4.388-8.211-5.331c0.011-0.101-0.063-0.211-0.021-0.316
			c0.316-0.67,1.065-1.123,1.287-1.182c0.559-0.105,1.092-0.152,1.603-0.152c7.057,0,9.571,10.562,10.421,16.469
			c-2.858-1.309-5.39-1.914-8.143-1.983c-8.016-0.227-9.629-1.46-10.204-4.113C182.798,129.895,182.945,128.787,183.499,128.012z
			 M167.077,103.606c-1.561,0.918-3.681,0.374-4.599-1.16c-0.453-0.775-0.58-1.682-0.358-2.547c0.222-0.859,0.775-1.582,1.529-2.041
			c0.538-0.309,1.107-0.469,1.709-0.469c1.191,0,2.268,0.615,2.874,1.635C169.192,100.601,168.659,102.657,167.077,103.606z
			 M147.813,84.116c0.211-0.093,0.433-0.138,0.654-0.138c0.675,0,1.271,0.401,1.534,1.034c0.169,0.408,0.18,0.867,0.011,1.278
			c-0.164,0.409-0.485,0.728-0.907,0.907c-0.817,0.346-1.835-0.061-2.178-0.896c-0.18-0.417-0.18-0.87-0.011-1.284
			C147.08,84.611,147.402,84.282,147.813,84.116z M135.463,83.494c-0.031-0.021-0.079-0.021-0.11-0.037
			c0.332-2.149-0.485-4.414-2.368-5.754c-2.568-1.835-6.418-1.165-8.247,1.4c-1.878,2.663-1.234,6.362,1.424,8.24
			c1.007,0.714,2.172,1.091,3.422,1.091c1.34,0,2.59-0.475,3.628-1.273c0.011,0.006,0.011,0.011,0.021,0.016
			c0.686,0.414,1.276,0.965,1.914,1.474c-1.303,0.319-2.832,0.588-4.456,0.588c-2.373,0-4.388-0.567-5.964-1.685
			c-1.182-0.835-1.909-2.829-2.59-4.756c-0.923-2.539-1.882-5.158-4.25-6.239c-0.675-0.3-1.371-0.458-2.083-0.458
			c-1.656,0-2.908,0.844-3.771,1.447c-0.158-1.112,0.242-3.375,2.088-5.993c1.562-2.199,3.438-3.539,4.937-3.845
			c-0.391,1.382-0.896,3.71,1.028,5.735c1.819,1.885,4.604,1.911,7.304,1.938c2.046,0.021,4.171,0.042,5.357,0.886
			c2.806,1.994,3.902,5.453,4.335,8.316C136.539,84.195,136.012,83.829,135.463,83.494z M130.87,83.441
			c-0.306,0.419-0.786,0.675-1.303,0.675c-0.338,0-0.644-0.103-0.923-0.298c-0.717-0.509-0.881-1.506-0.374-2.226
			c0.295-0.422,0.785-0.675,1.308-0.675c0.222,0,0.559,0.05,0.907,0.292C131.202,81.727,131.382,82.721,130.87,83.441z
			 M112.503,122.101l-0.021,2.157v-2.157c-0.762,0-1.36-0.591-1.371-1.351c-0.014-0.759,0.599-1.376,1.382-1.387
			c0.738,0,1.339,0.596,1.35,1.351C113.853,121.473,113.254,122.09,112.503,122.101z M125.944,110.958
			c-0.095-0.575-0.053-1.145,0.158-1.729c0.116-0.359,0.38-0.713,0.602-1.061C126.346,108.896,126.056,109.829,125.944,110.958z
			 M128.623,105.975c1.129-0.971,2.458-1.836,3.718-2.531c-0.042,1.523,0.158,2.879,0.575,4.261
			c1.571,5.173,0.802,5.621-0.095,6.144c-0.443,0.264-0.833,0.4-1.16,0.4c-0.391,0-0.728-0.269-0.971-0.548
			c-1.118-2.637,0.085-4.024,0.253-4.198c0.85-0.796,0.907-2.146,0.111-3.021C130.438,105.769,129.451,105.621,128.623,105.975z
			 M130.031,118.688c0.327,0.237,0.654,0.459,0.96,0.743c2.136,2.047,3.459,4.636,3.924,7.352c-0.549,0.786-1.061,1.482-1.604,2.184
			C131.435,125.939,130.284,122.438,130.031,118.688z M133.217,135.717c0.011,0.005,0.021,0.016,0.021,0.021
			c-0.506,0.86-1.086,1.683-1.803,2.437c-2.416,2.542-5.475,4.234-8.839,4.941C125.771,141.85,129.44,139.598,133.217,135.717z
			 M98.251,119.374c0.762,0.011,1.366,0.638,1.355,1.387c-0.005,0.76-0.609,1.351-1.376,1.351v2.156l-0.016-2.156
			c-0.762-0.011-1.35-0.633-1.339-1.387C96.88,119.97,97.492,119.374,98.251,119.374z M88.115,143.115
			c-3.354-0.701-6.415-2.399-8.843-4.941c-0.659-0.696-1.2-1.466-1.685-2.262c0.016-0.017,0.037-0.032,0.053-0.048
			C81.371,139.635,84.994,141.86,88.115,143.115z M84.606,109.233c0.195,0.548,0.258,1.07,0.145,1.619
			c-0.113-1.071-0.393-1.968-0.767-2.674C84.224,108.521,84.472,108.869,84.606,109.233z M77.795,107.699
			c0.422-1.382,0.617-2.742,0.57-4.267c1.252,0.696,2.586,1.566,3.72,2.536c-0.833-0.369-1.828-0.211-2.463,0.507
			c-0.799,0.886-0.73,2.251,0.156,3.048c0.016,0.021,1.297,1.371,0.248,4.023c-0.393,0.417-1.118,0.912-2.17,0.29
			C76.986,113.314,76.227,112.867,77.795,107.699z M79.72,119.427c0.393-0.374,0.831-0.681,1.268-0.98
			c-0.227,3.934-1.426,7.594-3.42,10.726c-0.583-0.765-1.17-1.534-1.753-2.394C76.279,124.067,77.587,121.473,79.72,119.427z
			 M77.996,76.269c1.189-0.838,3.296-0.865,5.363-0.886c2.695-0.026,5.482-0.061,7.291-1.943c1.98-2.081,1.392-4.477,1.01-5.843
			c1.269,0.237,3.293,1.608,4.973,3.947c1.852,2.613,2.241,4.881,2.089,5.993c-1.237-0.87-3.589-1.993-5.854-0.983
			c-2.376,1.081-3.325,3.699-4.243,6.233c-0.696,1.928-1.421,3.921-2.603,4.762c-1.577,1.118-3.576,1.685-5.957,1.685
			c-1.621,0-3.143-0.269-4.44-0.588c0.622-0.514,1.237-1.065,1.912-1.474c0.005,0,0.011-0.011,0.016-0.011
			c1.015,0.794,2.292,1.269,3.618,1.269c1.237,0,2.41-0.38,3.42-1.092c2.663-1.877,3.288-5.576,1.408-8.245
			c-1.814-2.565-5.69-3.225-8.224-1.405c-1.912,1.345-2.711,3.602-2.371,5.759c-0.032,0.016-0.063,0.016-0.097,0.031
			c-0.562,0.341-1.089,0.718-1.635,1.113C74.064,81.732,75.167,78.278,77.996,76.269z M80.237,81.216
			c0.334-0.237,0.675-0.288,0.901-0.288c0.525,0,1.01,0.248,1.292,0.669c0.522,0.72,0.34,1.717-0.364,2.226
			c-0.702,0.496-1.732,0.313-2.228-0.377C79.33,82.721,79.509,81.727,80.237,81.216z M63.789,86.307
			c-0.274,0.627-0.87,1.026-1.54,1.026c-0.221,0-0.438-0.042-0.659-0.14c-0.403-0.169-0.722-0.485-0.888-0.902
			c-0.169-0.416-0.164-0.87,0.016-1.297c0.258-0.614,0.857-1.016,1.532-1.016c0.222,0,0.443,0.045,0.654,0.138
			c0.4,0.171,0.73,0.495,0.896,0.907C63.969,85.432,63.96,85.885,63.789,86.307z M42.767,99.019c0.612-1.025,1.69-1.643,2.885-1.643
			c0.593,0,1.181,0.164,1.706,0.472c0.772,0.454,1.3,1.182,1.521,2.041c0.222,0.87,0.103,1.771-0.356,2.547
			c-0.912,1.54-3.035,2.067-4.59,1.166C42.36,102.657,41.838,100.601,42.767,99.019z"/>
	</g>
</g>
</svg>